<svg width="128" height="108" viewBox="0 0 128 108" fill="none" xmlns="http://www.w3.org/2000/svg">
<path d="M127.11 10.2937L112.628 0.785235L111.656 18.0874L127.11 10.2937ZM3.93964 106.664C3.72399 104.783 3.57011 102.933 3.47575 101.112L0.481511 101.265C0.579166 103.149 0.738311 105.062 0.960951 107.003L3.93964 106.664ZM3.64924 90.0237C3.97489 86.243 4.57327 82.6066 5.42066 79.1127L2.50702 78.4016C1.62333 82.0452 1.00063 85.8322 0.662057 89.7628L3.64924 90.0237ZM8.86528 68.6258C10.3034 65.1985 12.0006 61.929 13.9296 58.816L11.3813 57.2318C9.37179 60.4748 7.60163 63.8841 6.10084 67.4609L8.86528 68.6258ZM20.4395 49.8796C22.8137 47.0734 25.3939 44.4222 28.1527 41.9252L26.1408 39.6976C23.2889 42.2788 20.6154 45.0251 18.1509 47.9381L20.4395 49.8796ZM36.8177 34.9813C39.8157 32.8498 42.9559 30.8639 46.2127 29.0232L44.7367 26.4089C41.3949 28.2977 38.1669 30.3387 35.0801 32.5333L36.8177 34.9813ZM56.159 24.0021C59.5349 22.4853 62.9962 21.1066 66.5188 19.8651L65.5206 17.0336C61.9228 18.3016 58.384 19.711 54.9291 21.2633L56.159 24.0021ZM77.1861 16.5677C80.789 15.6032 84.4276 14.7742 88.0775 14.0799L87.515 11.1309C83.7943 11.8386 80.0841 12.6839 76.4088 13.6678L77.1861 16.5677ZM99.1236 12.3899C102.86 11.956 106.581 11.6624 110.261 11.5081L110.133 8.50895C106.378 8.66643 102.584 8.96583 98.7751 9.40822L99.1236 12.3899Z" fill="white"/>
</svg>
