<svg width="184" height="96" viewBox="0 0 184 96" fill="none" xmlns="http://www.w3.org/2000/svg">
<path d="M176.846 95.5366L183.429 79.781L165.015 86.0368L176.846 95.5366ZM0.211313 5.65168C2.30597 5.33171 4.38498 5.04328 6.44818 4.78563L6.7563 2.06701C4.65714 2.32915 2.54208 2.62259 0.411293 2.94807L0.211313 5.65168ZM18.7952 3.59212C22.9452 3.30964 27.0256 3.15324 31.0351 3.11615L31.7771 0.368146C27.6963 0.405903 23.5435 0.565084 19.3202 0.852551L18.7952 3.59212ZM43.0619 3.36684C47.0652 3.57292 50.9908 3.89972 54.837 4.33975L56.0001 1.61334C52.0864 1.16559 48.0916 0.833014 44.0173 0.623282L43.0619 3.36684ZM66.3184 6.02485C70.1124 6.70736 73.8204 7.50197 77.4403 8.40052L78.9932 5.74398C75.3121 4.83024 71.5408 4.02203 67.6812 3.32775L66.3184 6.02485ZM88.1877 11.4489C91.7199 12.5797 95.1571 13.8114 98.4973 15.135L100.398 12.5896C97.0041 11.2446 93.5108 9.99276 89.9202 8.84325L88.1877 11.4489ZM108.365 19.4403C111.595 20.984 114.72 22.6154 117.737 24.3249L119.943 21.9248C116.878 20.1887 113.704 18.5318 110.424 16.9637L108.365 19.4403ZM126.609 29.7727C129.503 31.6955 132.279 33.6912 134.936 35.7492L137.407 33.5252C134.709 31.4356 131.89 29.4092 128.951 27.4568L126.609 29.7727ZM142.695 42.2357C145.218 44.5124 147.606 46.8451 149.856 49.2213L152.56 47.2079C150.273 44.7936 147.848 42.4242 145.285 40.112L142.695 42.2357ZM156.361 56.6799C158.452 59.2914 160.384 61.9374 162.152 64.603L165.064 62.8503C163.263 60.1364 161.298 57.4442 159.171 54.7888L156.361 56.6799ZM167.159 73.0073C168.725 75.9667 170.089 78.9298 171.247 81.8764L174.343 80.4778C173.158 77.462 171.764 74.4345 170.165 71.4154L167.159 73.0073Z" fill="white"/>
</svg>
