<svg width="90" height="15" viewBox="0 0 90 15" fill="none" xmlns="http://www.w3.org/2000/svg">
<path d="M41.8725 7.31042C41.8725 9.48511 41.8647 11.6598 41.8803 13.8345C41.8803 14.1526 41.771 14.2435 41.3962 14.2305C40.6779 14.211 39.9674 14.2175 39.2491 14.2305C38.9758 14.237 38.8743 14.1526 38.8899 13.9319C38.9055 13.5748 38.8977 13.2178 38.8899 12.8607C38.8899 12.7764 38.8196 12.692 38.7884 12.6076C38.7103 12.6595 38.6088 12.6985 38.562 12.7634C37.5001 14.0617 35.9229 14.4901 34.1662 14.4836C30.7932 14.4642 28.4977 12.7049 27.9121 10.1408C27.5998 8.76454 27.7091 7.40131 28.4352 6.11597C29.4503 4.3178 31.1289 3.28563 33.5416 3.10387C35.0797 2.99351 36.4851 3.26616 37.7187 4.05813C37.9452 4.20095 38.1326 4.3892 38.3434 4.545C38.4214 4.60343 38.5229 4.64887 38.6166 4.7008C38.6479 4.60343 38.7259 4.50605 38.7259 4.40868C38.7338 3.22071 38.7338 2.02626 38.7338 0.838297C38.7338 0.390376 38.7338 0.390376 39.2569 0.390376C39.983 0.390376 40.7169 0.403359 41.4431 0.383885C41.7944 0.370901 41.8803 0.474767 41.8803 0.753906C41.8647 2.94158 41.8725 5.12275 41.8725 7.31042ZM38.8196 8.78402C38.8196 6.84952 37.1488 5.41488 34.9079 5.3954C32.7686 5.38242 30.8869 6.68074 30.9025 8.77753C30.9181 10.8938 32.8154 12.1337 34.8689 12.1337C37.1253 12.1337 38.8118 10.7055 38.8196 8.78402Z" fill="white"/>
<path d="M89.9923 7.34335C89.9923 9.48558 89.9923 11.6278 89.9923 13.77C89.9923 14.2244 89.9923 14.2244 89.4301 14.2244C88.7821 14.2244 88.1262 14.2115 87.4782 14.2309C87.1659 14.2374 87.0253 14.1595 87.041 13.8869C87.0644 13.5298 87.0488 13.1728 87.041 12.8158C87.041 12.7444 86.9707 12.673 86.9238 12.5951C86.8536 12.634 86.7599 12.6665 86.713 12.7184C85.7995 13.8804 84.4331 14.3413 82.8482 14.4452C80.865 14.575 79.116 14.1206 77.7106 12.9196C76.719 12.0757 76.1959 11.0371 75.9929 9.88806C75.7665 8.62869 75.868 7.3823 76.516 6.20732C77.531 4.35721 79.2175 3.27312 81.7004 3.09784C83.0668 3.00047 84.3394 3.20171 85.4872 3.83789C85.8385 4.03263 86.1352 4.30528 86.4632 4.53249C86.5569 4.5974 86.6662 4.63635 86.7755 4.68829C86.8145 4.59091 86.8848 4.49354 86.8848 4.38967C86.9004 3.92228 86.8926 3.46137 86.8926 2.99398C86.8926 2.23446 86.9004 1.48144 86.8848 0.721919C86.877 0.468746 86.9785 0.377864 87.2908 0.384355C88.0482 0.397339 88.7977 0.40383 89.5551 0.384355C89.8986 0.377864 90.0001 0.475238 90.0001 0.754377C89.9845 2.95503 89.9923 5.14919 89.9923 7.34335ZM82.9887 12.1342C85.253 12.1406 86.9863 10.68 86.9863 8.76501C86.9863 6.86297 85.2608 5.40236 83.0277 5.39587C80.7635 5.39587 79.0536 6.83051 79.0457 8.73255C79.0301 10.68 80.7166 12.1342 82.9887 12.1342Z" fill="white"/>
<path d="M0.00792988 7.30405C0.00792988 5.12936 0.0157377 2.95467 0.00012207 0.779989C0.00012207 0.4619 0.117239 0.371018 0.484206 0.384001C1.21033 0.403476 1.94427 0.403476 2.67039 0.384001C3.04517 0.371018 3.16228 0.4619 3.15448 0.779989C3.13886 2.9352 3.14667 5.08392 3.14667 7.23913C3.14667 7.32352 3.13886 7.4144 3.14667 7.49879C3.16228 7.60266 3.20132 7.70003 3.23256 7.79741C3.33406 7.74548 3.45898 7.70653 3.54487 7.63512C4.7785 6.53804 6.02775 5.44745 7.23796 4.33089C8.29982 3.35715 8.28421 3.34417 9.83796 3.34417C10.5563 3.34417 11.2668 3.34417 11.9851 3.34417C12.0788 3.34417 12.1725 3.38312 12.2662 3.4026C12.2115 3.46102 12.1647 3.52594 12.1022 3.57787C10.4392 5.03848 8.78391 6.50558 7.11304 7.9597C6.86319 8.17392 6.83976 8.31024 7.0818 8.55043C8.93226 10.3681 10.7593 12.1987 12.5941 14.0229C12.641 14.0683 12.6722 14.1267 12.7112 14.1787C12.641 14.1916 12.5629 14.2111 12.4926 14.2111C11.298 14.2111 10.0956 14.2241 8.90102 14.1981C8.71364 14.1916 8.4716 14.0553 8.34667 13.919C6.80853 12.2961 5.28601 10.6667 3.75568 9.0373C3.60733 8.88151 3.41994 8.76466 3.24817 8.62833C3.21694 8.82308 3.15448 9.01783 3.15448 9.21258C3.14667 10.7186 3.14667 12.2182 3.14667 13.7242C3.14667 14.2111 3.14667 14.2111 2.54547 14.2111C1.84276 14.2111 1.14006 14.1981 0.437359 14.2176C0.0938158 14.2436 0.00012207 14.1462 0.00012207 13.8606C0.0157377 11.6729 0.00792988 9.49172 0.00792988 7.30405Z" fill="white"/>
<path d="M26.2268 8.80342C26.2502 11.848 23.5722 14.2174 19.8635 14.4381C18.2472 14.5355 16.7247 14.3343 15.3193 13.6591C13.3283 12.7049 12.2508 11.2313 12.0478 9.34222C11.8683 7.68686 12.368 6.1873 13.7265 4.92793C14.8352 3.90226 16.2562 3.34398 17.8647 3.14274C19.6214 2.92203 21.3313 3.0973 22.8851 3.84383C24.9932 4.85652 26.1019 6.40152 26.2112 8.4269C26.2112 8.54375 26.219 8.65411 26.2268 8.80342ZM15.171 8.75148C15.171 10.686 16.8418 12.1271 19.0905 12.1336C21.3625 12.1401 23.0959 10.699 23.1115 8.78394C23.1271 6.8819 21.386 5.40831 19.1217 5.40182C16.8653 5.40182 15.171 6.83646 15.171 8.75148Z" fill="white"/>
<path d="M60.7927 10.4324C60.7927 11.5684 60.7849 12.7044 60.8005 13.8405C60.8083 14.1326 60.7068 14.243 60.3398 14.23C59.7152 14.204 59.0906 14.204 58.466 14.23C58.0912 14.243 57.9897 14.1261 58.0131 13.834C58.0365 13.5419 58.0209 13.2497 58.0131 12.9576C58.0131 12.8797 57.9507 12.8018 57.9194 12.7239C57.8335 12.7629 57.7242 12.7823 57.6696 12.8408C56.7326 13.9768 55.3585 14.4377 53.7813 14.4637C52.0401 14.4896 50.4552 14.1326 49.3855 12.8343C48.5266 11.7891 48.5969 9.63392 50.3693 8.62772C51.3765 8.05646 52.5008 7.76434 53.6876 7.66696C54.929 7.5631 56.1783 7.55011 57.4197 7.50467C57.9975 7.4852 58.06 7.42677 58.0131 6.9399C57.8726 5.64807 56.7248 5.10927 55.3428 5.00541C53.9531 4.90803 52.6882 5.21314 51.5873 5.93371C51.5014 5.98564 51.275 5.98564 51.2047 5.93371C50.7675 5.59614 50.3537 5.23261 49.9242 4.88856C49.729 4.73276 49.8774 4.64837 50.0023 4.55099C50.7987 3.95377 51.7278 3.55129 52.7663 3.33057C54.4293 2.98003 56.1002 2.91511 57.7633 3.35654C59.5512 3.83692 60.5428 4.90803 60.7068 6.43356C60.8473 7.75784 60.8161 9.08862 60.8552 10.4194C60.8239 10.4324 60.8083 10.4324 60.7927 10.4324ZM56.4984 9.28986C56.4984 9.28337 56.4984 9.27688 56.4984 9.2639C55.9831 9.29635 55.46 9.30934 54.9447 9.36127C54.1717 9.44566 53.4065 9.57549 52.735 9.93902C52.3681 10.1338 52.1182 10.3934 52.0323 10.757C51.8528 11.4581 52.329 12.1462 53.266 12.3669C53.8125 12.4967 54.4215 12.5292 54.9915 12.5032C56.108 12.4513 57.0215 12.0748 57.5212 11.1724C57.8179 10.6336 57.8179 10.0624 57.7789 9.48461C57.7711 9.4132 57.6149 9.29635 57.5134 9.28986C57.1777 9.27688 56.8341 9.28986 56.4984 9.28986Z" fill="white"/>
<path d="M62.4455 8.79019C62.4455 7.12185 62.4455 5.46 62.4455 3.79166C62.4455 3.36321 62.4533 3.35023 62.9686 3.35023C63.6323 3.35023 64.2959 3.36321 64.9596 3.34374C65.311 3.33724 65.4203 3.4476 65.4047 3.72674C65.3812 4.05132 65.389 4.3759 65.4047 4.70048C65.4125 4.81733 65.4827 4.93418 65.5218 5.05103C65.6155 4.96664 65.7248 4.89523 65.795 4.80435C66.4119 3.9864 67.2083 3.35672 68.3872 3.16846C70.3704 2.84388 72.5644 3.22689 73.6653 4.82382C74.1807 5.56386 74.3368 6.3883 74.3446 7.22571C74.368 9.44584 74.3446 11.6595 74.3602 13.8796C74.3602 14.1458 74.2665 14.2366 73.9386 14.2302C73.2125 14.2107 72.4785 14.2237 71.7524 14.2237C71.2137 14.2237 71.2137 14.2237 71.2137 13.7887C71.2137 11.9841 71.2293 10.1729 71.1981 8.36823C71.1903 7.82294 71.0888 7.26466 70.9014 6.74533C70.5344 5.74563 69.5038 5.25876 68.2545 5.42105C66.6383 5.62878 65.6389 6.56357 65.6155 7.9333C65.5842 9.88727 65.5686 11.8477 65.5686 13.8017C65.5686 14.1198 65.4749 14.2431 65.0689 14.2302C64.3428 14.2042 63.6089 14.2107 62.8827 14.2302C62.5314 14.2366 62.4377 14.1263 62.4377 13.8536C62.4533 12.1658 62.4455 10.478 62.4455 8.79019Z" fill="white"/>
<path d="M47.3457 7.3044C47.3457 9.47909 47.3378 11.6473 47.3535 13.822C47.3535 14.1271 47.2676 14.2439 46.8772 14.2309C46.112 14.205 45.3468 14.218 44.5739 14.2309C44.2772 14.2374 44.1913 14.1466 44.1913 13.9129C44.1991 9.51155 44.1991 5.11024 44.1913 0.71543C44.1913 0.442783 44.3162 0.384359 44.6051 0.390851C45.3703 0.403834 46.1432 0.410325 46.9084 0.390851C47.252 0.384359 47.3535 0.475241 47.3535 0.760872C47.3378 2.93556 47.3457 5.12323 47.3457 7.3044Z" fill="white"/>
</svg>
