<svg width="17" height="18" viewBox="0 0 17 18" fill="none" xmlns="http://www.w3.org/2000/svg">
<path d="M12.1498 11.2119H11.3819L11.1098 10.9367C12.0623 9.77471 12.6358 8.26621 12.6358 6.6252C12.6358 2.96605 9.80732 0 6.3179 0C2.82847 0 0 2.96605 0 6.6252C0 10.2843 2.82847 13.2504 6.3179 13.2504C7.88279 13.2504 9.32133 12.649 10.4294 11.6502L10.6918 11.9355V12.7408L15.5517 17.8269L17 16.3082L12.1498 11.2119ZM6.3179 11.2119C3.89766 11.2119 1.94397 9.16316 1.94397 6.6252C1.94397 4.08724 3.89766 2.03852 6.3179 2.03852C8.73814 2.03852 10.6918 4.08724 10.6918 6.6252C10.6918 9.16316 8.73814 11.2119 6.3179 11.2119Z" fill="black" fill-opacity="0.5"/>
</svg>
