<svg width="534" height="161" viewBox="0 0 534 161" fill="none" xmlns="http://www.w3.org/2000/svg">
<path d="M242.016 161C221.894 161 200.811 154.458 182.401 141.892C177.437 138.504 172.798 134.813 168.312 131.246C163.543 127.455 159.043 123.873 154.288 120.719C129.78 104.456 101.847 101.75 82.7248 102.342C59.934 103.048 35.8838 108.451 7.03437 119.346L14.2629 106.59L0 100.725C30.9652 89.0343 57.0566 83.2237 82.1125 82.4476C113.675 81.4626 142.45 88.9696 165.31 104.138C170.776 107.764 175.829 111.789 180.718 115.674C185.119 119.177 189.276 122.48 193.637 125.46C216.811 141.28 244.729 145.489 266.5 136.444C274.535 133.106 282.147 127.962 290.206 122.515C304.494 112.859 319.265 102.874 337.954 102.218C341.324 102.098 346.337 102.282 350.907 105.247C355.656 108.327 357.837 113.073 359.141 115.913C361.466 120.973 364.1 126.709 367.898 129.499C374.803 134.564 386.602 130.693 394.696 124.251C398.933 120.878 402.826 116.858 406.948 112.6C412.847 106.506 418.946 100.208 426.657 95.2329C436.534 88.8602 447.352 85.741 457.812 82.7262C464.856 80.6965 471.507 78.7762 477.581 75.9754C503.717 63.9165 519.115 32.5104 512.633 4.4823L524.466 13.7305L532.039 0C536.176 17.8845 533.721 37.3907 525.124 54.922C516.531 72.4532 502.612 86.3479 485.929 94.039C478.482 97.4766 470.78 99.6953 463.333 101.844C453.839 104.581 444.873 107.168 437.46 111.948C431.67 115.684 426.613 120.908 421.261 126.435C416.88 130.957 412.35 135.638 407.107 139.812C393.069 150.986 371.861 157.09 356.114 145.533C348.159 139.693 344.216 131.106 341.045 124.211C340.821 123.724 340.368 122.739 340.01 122.112C339.716 122.092 339.278 122.082 338.655 122.107C325.682 122.565 313.873 130.544 301.368 138.996C292.85 144.752 284.038 150.707 274.151 154.816C264.155 158.965 253.232 161 242.016 161Z" fill="#D0FA61"/>
</svg>
