<svg width="599" height="459" viewBox="0 0 599 459" fill="none" xmlns="http://www.w3.org/2000/svg">
<path d="M123.084 130.982C96.1084 136.774 66.9399 138.304 44.2412 153.933C22.968 168.687 11.0155 193.496 5.0941 218.523C-11.6832 288.251 13.8666 366.503 68.6944 412.952C123.522 459.4 204.997 472.187 271.448 444.537C292.173 435.903 312.02 423.553 334.39 421.804C361.366 419.728 386.806 433.28 413.233 438.744C458.411 448.034 507.098 432.296 541.091 401.257C575.085 370.219 594.713 325.082 598.332 279.18C601.95 233.278 590.656 187.048 569.821 145.954C534.183 75.6805 468.17 18.9586 390.534 3.76718C338.776 -6.28757 282.962 3.98576 238.441 32.1828C216.839 45.8441 197.54 63.4399 185.368 85.7352C171.332 111.856 153.02 124.533 123.084 130.982Z" fill="url(#paint0_linear_84_7)"/>
<defs>
<linearGradient id="paint0_linear_84_7" x1="299.5" y1="0" x2="299.5" y2="459" gradientUnits="userSpaceOnUse">
<stop stop-color="#3860ED"/>
<stop offset="1" stop-color="#3860ED" stop-opacity="0"/>
</linearGradient>
</defs>
</svg>
